<svg width="720" height="98" viewBox="0 0 720 98" fill="none" xmlns="http://www.w3.org/2000/svg">
<g clip-path="url(#clip0_1728_2)">
<path fill-rule="evenodd" clip-rule="evenodd" d="M65.8228 4.27571C76.8354 4.27571 77.8552 12.5003 81.3222 23.0431L106.203 95.9871H114.973L131.9 46.8055L148.011 96.0698L156.985 95.9871C158.616 92.4266 159.432 87.983 161.064 84.2021L173.708 47.6337C176.359 39.6573 179.215 31.5709 181.866 23.5399C184.517 15.5635 186.76 4.27571 195.326 4.27571H198.385V1.70889H169.833V4.27571C181.458 4.27571 183.293 6.20794 177.175 21.8836C172.688 33.1991 164.123 59.8324 159.636 73.1347L156.577 81.8561C156.577 81.9943 156.373 82.4361 156.373 82.5461C156.373 82.6289 156.169 82.767 156.169 82.822C156.169 82.8771 156.169 83.0152 155.964 83.098C151.682 71.2306 147.807 59.0596 143.932 47.1091C141.485 40.0991 132.307 15.4808 132.307 9.90615C132.307 3.77929 137.202 4.27571 141.077 4.27571V1.70889H108.242V4.27571C118.439 4.27571 119.459 10.3475 122.722 20.0899C123.945 23.5949 124.965 26.9618 126.189 30.4668C127.617 34.7172 129.452 38.3323 128.636 40.9546C123.946 54.9746 119.255 69.2707 114.361 83.0976C114.157 82.8767 113.953 82.9321 113.749 82.3252L112.525 78.5166C111.913 76.7775 111.302 75.2321 110.69 73.5211C109.67 70.0434 108.447 66.5661 107.427 63.1161C104.775 56.106 102.737 49.4824 100.289 42.5C98.0461 35.7105 95.5988 29.0868 93.355 22.2699C89.6842 10.954 86.6249 4.27531 98.4534 4.27531V1.7085H65.8228V4.27531V4.27571Z" fill="white"/>
<path fill-rule="evenodd" clip-rule="evenodd" d="M275.882 4.27577C279.961 4.27577 285.06 3.83438 285.06 10.4026V87.2935C285.06 93.8617 279.961 93.4203 275.882 93.4203V95.9871H304.638C305.454 95.9871 306.066 95.6835 306.066 94.9658C306.066 90.1635 296.888 99.1608 296.888 83.5675V62.6751V6.31845C306.473 6.31845 321.769 5.15935 329.315 13.3558C334.414 18.7931 335.026 27.2659 333.598 34.3864C330.131 51.1942 313.816 52.9605 298.928 52.9605C299.336 54.1751 306.473 62.2064 308.105 63.8347C311.165 67.2569 314.223 71.121 317.487 74.3497L336.249 95.9875H356.847V93.4207C345.63 93.4484 337.677 80.4766 329.315 71.7829L315.243 55.4996C320.954 55.4996 331.966 51.7187 336.249 47.6891C339.105 44.9018 340.736 43.715 342.572 39.7959C348.078 29.1427 346.039 15.0394 336.453 8.66437C330.743 4.74487 321.769 1.70935 314.836 1.70935H275.883V4.27616L275.882 4.27577Z" fill="white"/>
<path fill-rule="evenodd" clip-rule="evenodd" d="M363.985 47.8269C363.577 34.5518 364.393 23.6504 375.61 13.3558C382.952 6.73212 395.392 5.37983 404.57 8.27759C418.642 12.6935 425.78 24.8372 429.859 37.8914C435.977 58.342 429.247 96.4839 395.8 89.888C386.623 88.1216 379.485 81.4702 374.182 74.4598C369.696 68.1674 364.189 55.0855 363.985 47.8269V47.8269ZM404.774 0.16386C414.767 0.826148 422.924 5.46257 429.043 11.5621C442.299 24.9753 445.562 48.1028 439.852 64.8283C434.549 80.9184 419.865 95.7943 402.938 97.0362C360.926 100.072 347.67 59.7223 356.847 32.3718C358.683 26.4654 360.926 22.2981 364.801 17.2749C369.288 11.0376 377.649 5.24207 384.992 2.64794C388.866 1.24062 394.577 -0.553851 404.774 0.16386V0.16386Z" fill="white"/>
<path fill-rule="evenodd" clip-rule="evenodd" d="M219.595 14.57L236.726 59.1424L204.095 59.0874L219.595 14.5704V14.57ZM209.193 4.2758C216.943 4.2758 217.148 6.15262 214.7 13.7976C213.272 17.8545 211.641 21.8013 210.417 25.8582L188.596 86.1067C185.333 92.9235 182.477 93.4203 176.359 93.4203V95.9872H204.707V93.4203C195.325 93.4203 191.859 92.8958 196.345 80.0348C197.365 77.4407 198.18 74.5148 199.2 72.1139C200.22 69.4639 201.036 66.5662 202.056 64.2203H238.357L240.192 68.1394C242.844 76.033 252.021 92.8404 241.62 93.4477C238.561 93.6131 237.949 92.5918 237.949 95.9868H271.191V93.42C263.646 93.42 261.606 90.8531 258.955 84.7263C257.119 80.4208 255.08 75.4253 253.652 71.0925L227.548 2.26043C227.14 1.59814 228.16 1.87406 226.12 1.65356L209.193 1.70859V4.2754L209.193 4.2758Z" fill="white"/>
<path fill-rule="evenodd" clip-rule="evenodd" d="M0.765366 66.2629C0.765366 73.8248 2.19287 81.1389 2.19287 88.8112C16.8768 98.4158 44.001 101.617 57.4609 88.1762C64.1911 81.3043 67.862 70.7061 65.2109 60.6324C60.1125 40.1541 30.541 44.0732 17.2846 36.3455C5.04788 29.2523 6.88352 11.0095 25.4423 5.87624C30.5407 4.44121 36.2511 4.57897 41.3495 6.12484C48.6916 8.30489 52.7703 12.1135 56.0334 18.5995C57.2571 20.8345 57.8691 22.5736 58.4807 25.2782H60.7241L59.0923 5.29669C53.5858 2.45395 46.6521 0.659872 39.5138 0.163452H31.7639C20.9551 0.908478 10.3501 4.99345 4.23199 13.3831C1.9886 16.419 0.764971 20.1176 0.152957 23.9263C-0.0513112 25.9682 -0.0513112 28.0659 0.152957 30.1636C0.764971 34.4687 2.19247 38.4709 4.84361 41.5341C10.5536 48.1301 22.5865 51.0006 30.5403 52.7392C38.9018 54.5329 51.5463 56.1065 55.6249 64.5515C59.0919 71.8652 55.8292 84.3125 46.0397 89.1698C33.803 95.3521 15.4485 91.9853 7.29087 78.0475C5.25135 74.432 4.43586 71.672 3.61998 67.9738C3.00796 65.6002 3.41611 66.2629 0.764971 66.2629H0.765366Z" fill="white"/>
<path fill-rule="evenodd" clip-rule="evenodd" d="M587.505 24.8922H589.137L587.913 4.77217C585.67 4.22033 583.834 3.2267 581.387 2.61983C574.453 0.880778 568.335 0.135753 562.828 0.163464C529.382 0.411674 522.448 29.9427 534.277 41.5619C542.23 49.4551 548.756 50.1174 559.973 52.7396C568.335 54.7269 580.163 55.8306 584.65 64.5519C588.321 72.2247 585.058 84.1475 575.065 89.1703C562.217 95.4903 543.454 91.3784 536.316 77.9098C530.809 67.1742 534.684 66.2633 529.586 66.2633L531.626 89.3357C532.645 89.612 539.783 93.2825 544.27 94.6625C558.342 98.9403 575.065 98.333 586.69 88.0939C595.663 80.2561 604.024 51.7187 575.065 44.2118C566.5 41.9486 554.671 40.5136 546.921 36.5668C529.178 27.5695 540.803 -0.443404 569.966 5.90436C574.045 6.78754 578.328 9.6853 581.183 12.5835C582.611 14.184 583.834 16.0612 584.854 18.1031C586.077 20.3662 586.281 22.9331 587.505 24.8926V24.8922Z" fill="white"/>
<path fill-rule="evenodd" clip-rule="evenodd" d="M436.181 4.27571C448.01 4.27571 448.01 13.1349 452.088 23.2362L478.805 95.9871H487.574C489.001 89.998 509.191 33.7517 512.659 23.678C516.738 10.9548 517.349 4.27571 528.974 4.27571V1.70889H500.422V4.27571C514.494 4.27571 512.251 7.64297 507.56 21.7458L493.692 62.6197C492.468 65.7383 487.574 81.4143 486.35 83.0426L484.922 79.1512C484.311 77.5229 483.699 76.2257 483.291 74.6529C479.212 62.3437 460.857 17.6612 460.857 9.38123C460.857 3.86163 465.344 4.27531 469.015 4.27531V1.7085H436.18V4.27531L436.181 4.27571Z" fill="white"/>
<path fill-rule="evenodd" clip-rule="evenodd" d="M689.476 4.27571C700.284 4.27571 698.653 5.13158 698.653 23.7331V86.7689C698.653 93.9171 694.37 93.4203 689.476 93.4203V95.9871H719.659V93.4203C716.192 93.4203 710.482 93.8616 710.482 88.3143V9.38123C710.482 3.69615 716.192 4.27531 719.659 4.27531V1.7085H689.476V4.27531V4.27571Z" fill="white"/>
<path fill-rule="evenodd" clip-rule="evenodd" d="M598.722 4.2758C603.004 4.2758 607.899 3.75167 607.899 10.4027V87.2935C607.899 93.8617 602.801 93.4203 598.722 93.4203V95.9872H628.905C628.905 91.5435 627.069 94.2481 623.399 93.2549C621.359 92.6476 619.728 91.1021 619.728 88.8112V8.8849C619.728 6.59401 621.359 5.04854 623.399 4.44127C627.069 3.44764 628.905 6.15261 628.905 1.70898H598.722V4.2758V4.2758Z" fill="white"/>
<path fill-rule="evenodd" clip-rule="evenodd" d="M647.464 4.27571C649.299 4.27571 654.805 3.94476 656.233 5.15889C659.088 10.1544 652.97 13.7144 650.319 16.9712L631.352 37.9741C629.313 39.9613 622.991 46.3368 621.767 48.3236C622.379 51.0836 652.154 83.6229 657.049 89.9429C658.476 91.9021 660.72 93.7239 662.352 95.9871H682.338V93.4203C676.424 93.4203 670.101 88.2316 667.042 84.0089C662.148 77.192 633.596 47.33 632.576 43.7145L652.155 22.3254C662.148 12.4172 664.595 4.27531 678.667 4.27531V1.7085H647.464V4.27531V4.27571Z" fill="white"/>
</g>
<defs>
<clipPath id="clip0_1728_2">
<rect width="719.66" height="97.1981" fill="white"/>
</clipPath>
</defs>
</svg>
